
# 3ds Max Wavefront OBJ Exporter v0.97b - (c)2007 guruware
# File Created: 01.05.2012 16:38:34

mtllib scene.mtl

#
# object Plane001
#

v  -10.0543 0.0000 9.4097
v  9.7750 0.0000 9.4097
v  9.7750 0.0000 -9.4620
v  -10.0543 0.0000 -9.4620

# 24 vertices

vn 0.0000 1.0000 -0.0000

# 7 vertex normals

vt 0.0000 0.0000 0.0000
vt 10.0291 0.0000 0.0000
vt 10.0291 9.5448 0.0000
vt 0.0000 9.5448 0.0000

# 23 texture coords

g Plane001
usemtl wire_027177027
f 1/1/1 2/2/1 3/3/1 
f 3/3/1 4/4/1 1/1/1 


# 20 faces

