# 3ds Max Wavefront OBJ Exporter v0.97b - (c)2007 guruware
# File Created: 29.04.2012 23:26:22

mtllib twisted_cube.mtl

#
# object Box001
#

v  -1.9142 0.0000 1.2586
v  -1.9142 0.0000 0.9308
v  -1.1483 0.0000 0.9308
v  -1.1483 0.0000 1.2586
v  -0.3823 0.0000 0.9308
v  -0.3823 0.0000 1.2586
v  0.3836 0.0000 0.9308
v  0.3836 0.0000 1.2586
v  1.1496 0.0000 0.9308
v  1.1496 0.0000 1.2586
v  1.9155 0.0000 0.9308
v  1.9155 0.0000 1.2586
v  -1.9142 0.0000 0.6030
v  -1.1483 0.0000 0.6030
v  -0.3823 0.0000 0.6030
v  0.3836 0.0000 0.6030
v  1.1496 0.0000 0.6030
v  1.9155 0.0000 0.6030
v  -1.9142 0.0000 0.2751
v  -1.1483 0.0000 0.2751
v  -0.3823 0.0000 0.2751
v  0.3836 0.0000 0.2751
v  1.1496 0.0000 0.2751
v  1.9155 0.0000 0.2751
v  -1.9142 0.0000 -0.0527
v  -1.1483 0.0000 -0.0527
v  -0.3823 0.0000 -0.0527
v  0.3836 0.0000 -0.0527
v  1.1496 0.0000 -0.0527
v  1.9155 0.0000 -0.0527
v  -1.9142 0.0000 -0.3805
v  -1.1483 0.0000 -0.3805
v  -0.3823 0.0000 -0.3805
v  0.3836 0.0000 -0.3805
v  1.1496 0.0000 -0.3805
v  1.9155 0.0000 -0.3805
v  -1.9142 0.0000 -0.7083
v  -1.1483 0.0000 -0.7083
v  -0.3823 0.0000 -0.7083
v  0.3836 0.0000 -0.7083
v  1.1496 0.0000 -0.7083
v  1.9155 0.0000 -0.7083
v  -1.4781 2.0007 -1.3898
v  -1.2224 2.0007 -0.5925
v  -0.9425 2.0007 -0.7019
v  -1.1982 2.0007 -1.4992
v  -0.9667 2.0007 0.2048
v  -0.6869 2.0007 0.0954
v  -0.7110 2.0007 1.0021
v  -0.4312 2.0007 0.8927
v  -0.4554 2.0007 1.7994
v  -0.1755 2.0007 1.6900
v  -0.1997 2.0007 2.5967
v  0.0802 2.0007 2.4873
v  -0.6627 2.0007 -0.8114
v  -0.9184 2.0007 -1.6087
v  -0.4070 2.0007 -0.0141
v  -0.1513 2.0007 0.7832
v  0.1043 2.0007 1.5805
v  0.3600 2.0007 2.3778
v  -0.3828 2.0007 -0.9208
v  -0.6385 2.0007 -1.7181
v  -0.1272 2.0007 -0.1235
v  0.1285 2.0007 0.6738
v  0.3842 2.0007 1.4711
v  0.6399 2.0007 2.2684
v  -0.1030 2.0007 -1.0302
v  -0.3587 2.0007 -1.8275
v  0.1527 2.0007 -0.2329
v  0.4084 2.0007 0.5644
v  0.6640 2.0007 1.3617
v  0.9197 2.0007 2.1590
v  0.1768 2.0007 -1.1397
v  -0.0788 2.0007 -1.9370
v  0.4325 2.0007 -0.3424
v  0.6882 2.0007 0.4549
v  0.9439 2.0007 1.2522
v  1.1996 2.0007 2.0495
v  0.4567 2.0007 -1.2491
v  0.2010 2.0007 -2.0464
v  0.7124 2.0007 -0.4518
v  0.9681 2.0007 0.3455
v  1.2237 2.0007 1.1428
v  1.4794 2.0007 1.9401
v  -1.3306 0.4001 0.9199
v  -2.0735 0.4001 0.7139
v  -0.5877 0.4001 1.1260
v  0.1551 0.4001 1.3320
v  0.8980 0.4001 1.5381
v  1.6409 0.4001 1.7441
v  -1.4327 0.8003 0.5424
v  -2.1078 0.8003 0.1427
v  -0.7577 0.8003 0.9421
v  -0.0827 0.8003 1.3417
v  0.5924 0.8003 1.7414
v  1.2674 0.8003 2.1411
v  -1.4485 1.2004 0.1487
v  -2.0150 1.2004 -0.4205
v  -0.8820 1.2004 0.7179
v  -0.3155 1.2004 1.2872
v  0.2510 1.2004 1.8564
v  0.8176 1.2004 2.4257
v  -1.3770 1.6006 -0.2373
v  -1.8008 1.6006 -0.9418
v  -0.9531 1.6006 0.4672
v  -0.5292 1.6006 1.1716
v  -0.1053 1.6006 1.8761
v  0.3185 1.6006 2.5806
v  1.7132 0.4001 1.4262
v  1.7855 0.4001 1.1082
v  1.8579 0.4001 0.7903
v  1.9302 0.4001 0.4723
v  2.0025 0.4001 0.1544
v  2.0748 0.4001 -0.1636
v  1.4077 0.8003 1.8522
v  1.5480 0.8003 1.5633
v  1.6883 0.8003 1.2744
v  1.8285 0.8003 0.9855
v  1.9688 0.8003 0.6965
v  2.1091 0.8003 0.4076
v  1.0174 1.2004 2.1832
v  1.2172 1.2004 1.9407
v  1.4170 1.2004 1.6983
v  1.6168 1.2004 1.4558
v  1.8166 1.2004 1.2133
v  2.0164 1.2004 0.9708
v  0.5658 1.6006 2.3992
v  0.8131 1.6006 2.2178
v  1.0603 1.6006 2.0364
v  1.3076 1.6006 1.8550
v  1.5549 1.6006 1.6735
v  1.8022 1.6006 1.4921
v  1.3320 0.4001 -0.3696
v  0.5891 0.4001 -0.5757
v  -0.1538 0.4001 -0.7817
v  -0.8967 0.4001 -0.9878
v  -1.6395 0.4001 -1.1938
v  1.4341 0.8003 0.0079
v  0.7591 0.8003 -0.3918
v  0.0840 0.8003 -0.7915
v  -0.5910 0.8003 -1.1911
v  -1.2660 0.8003 -1.5908
v  1.4499 1.2004 0.4016
v  0.8833 1.2004 -0.1677
v  0.3168 1.2004 -0.7369
v  -0.2497 1.2004 -1.3061
v  -0.8162 1.2004 -1.8754
v  1.3783 1.6006 0.7876
v  0.9544 1.6006 0.0831
v  0.5306 1.6006 -0.6214
v  0.1067 1.6006 -1.3259
v  -0.3172 1.6006 -2.0303
v  -1.7119 0.4001 -0.8759
v  -1.7842 0.4001 -0.5579
v  -1.8565 0.4001 -0.2400
v  -1.9288 0.4001 0.0780
v  -2.0012 0.4001 0.3959
v  -1.4063 0.8003 -1.3019
v  -1.5466 0.8003 -1.0130
v  -1.6869 0.8003 -0.7241
v  -1.8272 0.8003 -0.4352
v  -1.9675 0.8003 -0.1462
v  -1.0160 1.2004 -1.6329
v  -1.2158 1.2004 -1.3904
v  -1.4156 1.2004 -1.1480
v  -1.6154 1.2004 -0.9055
v  -1.8152 1.2004 -0.6630
v  -0.5645 1.6006 -1.8489
v  -0.8117 1.6006 -1.6675
v  -1.0590 1.6006 -1.4861
v  -1.3063 1.6006 -1.3047
v  -1.5536 1.6006 -1.1233
# 172 vertices

vn 0.0000 -1.0000 -0.0000
vn 0.0000 1.0000 -0.0000
vn -0.0969 0.7446 0.6604
vn -0.0882 0.5761 0.8126
vn -0.1960 0.6298 0.7516
vn -0.2160 0.7607 0.6121
vn -0.1193 0.1693 0.9783
vn -0.2396 0.2609 0.9352
vn -0.1102 -0.3467 0.9315
vn -0.2307 -0.2609 0.9374
vn -0.0742 -0.6767 0.7325
vn -0.1824 -0.6298 0.7550
vn 0.0000 -0.7841 0.6206
vn -0.0989 -0.7607 0.6415
vn -0.3732 0.6298 0.6812
vn -0.3586 0.7607 0.5411
vn -0.4602 0.2609 0.8486
vn -0.4521 -0.2609 0.8529
vn -0.3609 -0.6298 0.6878
vn -0.2522 -0.7607 0.5981
vn -0.5279 0.6298 0.5698
vn -0.4796 0.7607 0.4374
vn -0.6531 0.2609 0.7109
vn -0.6463 -0.2609 0.7171
vn -0.5176 -0.6298 0.5792
vn -0.3904 -0.7607 0.5186
vn -0.6508 0.6298 0.4240
vn -0.5717 0.7607 0.3074
vn -0.8066 0.2609 0.5304
vn -0.8015 -0.2609 0.5380
vn -0.6431 -0.6298 0.4357
vn -0.5049 -0.7607 0.4079
vn -0.6657 0.6767 0.3145
vn -0.5850 0.7841 0.2072
vn -0.8413 0.3467 0.4148
vn -0.8824 -0.1693 0.4390
vn -0.7365 -0.5761 0.3544
vn -0.5902 -0.7446 0.3118
vn 0.8714 0.4888 0.0410
vn 0.9273 0.3727 0.0340
vn 0.8948 0.3851 0.2257
vn 0.8460 0.4733 0.2456
vn 0.9816 0.1875 0.0360
vn 0.9493 0.2042 0.2390
vn 0.9992 -0.0184 0.0364
vn 0.9699 -0.0000 0.2436
vn 0.9747 -0.2206 0.0349
vn 0.9496 -0.2042 0.2379
vn 0.9172 -0.3971 0.0321
vn 0.8953 -0.3851 0.2239
vn 0.9093 -0.4162 -0.0000
vn 0.8616 -0.4733 0.1833
vn 0.8129 0.3851 0.4369
vn 0.7607 0.4733 0.4443
vn 0.8625 0.2042 0.4631
vn 0.8813 -0.0000 0.4726
vn 0.8630 -0.2042 0.4621
vn 0.8138 -0.3851 0.4353
vn 0.7910 -0.4733 0.3877
vn 0.6820 0.3851 0.6218
vn 0.6295 0.4733 0.6162
vn 0.7237 0.2042 0.6592
vn 0.7396 0.0000 0.6730
vn 0.7244 -0.2042 0.6584
vn 0.6832 -0.3851 0.6204
vn 0.6727 -0.4733 0.5687
vn 0.5099 0.3851 0.7692
vn 0.4604 0.4733 0.7510
vn 0.5413 0.2042 0.8157
vn 0.5534 -0.0000 0.8329
vn 0.5422 -0.2042 0.8151
vn 0.5115 -0.3851 0.7682
vn 0.5139 -0.4733 0.7155
vn 0.3365 0.3971 0.8539
vn 0.3035 0.4162 0.8571
vn 0.3583 0.2206 0.9072
vn 0.3678 0.0184 0.9297
vn 0.3616 -0.1875 0.9133
vn 0.3416 -0.3727 0.8628
vn 0.3296 -0.4888 0.8077
vn 0.0969 0.7446 -0.6604
vn 0.0882 0.5761 -0.8126
vn 0.1960 0.6298 -0.7516
vn 0.2160 0.7607 -0.6121
vn 0.1193 0.1693 -0.9783
vn 0.2396 0.2609 -0.9352
vn 0.1102 -0.3467 -0.9315
vn 0.2307 -0.2609 -0.9374
vn 0.0742 -0.6767 -0.7325
vn 0.1824 -0.6298 -0.7550
vn 0.0000 -0.7841 -0.6206
vn 0.0989 -0.7607 -0.6415
vn 0.3732 0.6298 -0.6812
vn 0.3586 0.7607 -0.5411
vn 0.4602 0.2609 -0.8486
vn 0.4521 -0.2609 -0.8529
vn 0.3609 -0.6298 -0.6878
vn 0.2522 -0.7607 -0.5981
vn 0.5279 0.6298 -0.5698
vn 0.4796 0.7607 -0.4374
vn 0.6531 0.2609 -0.7109
vn 0.6463 -0.2609 -0.7171
vn 0.5176 -0.6298 -0.5792
vn 0.3904 -0.7607 -0.5186
vn 0.6508 0.6298 -0.4240
vn 0.5717 0.7607 -0.3074
vn 0.8066 0.2609 -0.5304
vn 0.8015 -0.2609 -0.5380
vn 0.6431 -0.6298 -0.4357
vn 0.5049 -0.7607 -0.4079
vn 0.6657 0.6767 -0.3145
vn 0.5850 0.7841 -0.2072
vn 0.8413 0.3467 -0.4148
vn 0.8824 -0.1693 -0.4390
vn 0.7365 -0.5761 -0.3544
vn 0.5902 -0.7446 -0.3118
vn -0.8714 0.4888 -0.0410
vn -0.9273 0.3727 -0.0340
vn -0.8948 0.3851 -0.2257
vn -0.8460 0.4733 -0.2456
vn -0.9816 0.1875 -0.0360
vn -0.9493 0.2042 -0.2390
vn -0.9992 -0.0184 -0.0364
vn -0.9699 -0.0000 -0.2436
vn -0.9747 -0.2206 -0.0349
vn -0.9496 -0.2042 -0.2379
vn -0.9172 -0.3971 -0.0321
vn -0.8953 -0.3851 -0.2239
vn -0.9093 -0.4162 -0.0000
vn -0.8616 -0.4733 -0.1833
vn -0.8129 0.3851 -0.4369
vn -0.7607 0.4733 -0.4443
vn -0.8625 0.2042 -0.4631
vn -0.8813 -0.0000 -0.4726
vn -0.8630 -0.2042 -0.4621
vn -0.8138 -0.3851 -0.4353
vn -0.7910 -0.4733 -0.3877
vn -0.6820 0.3851 -0.6218
vn -0.6295 0.4733 -0.6162
vn -0.7237 0.2042 -0.6592
vn -0.7396 0.0000 -0.6730
vn -0.7244 -0.2042 -0.6584
vn -0.6832 -0.3851 -0.6204
vn -0.6727 -0.4733 -0.5687
vn -0.5099 0.3851 -0.7692
vn -0.4604 0.4733 -0.7510
vn -0.5413 0.2042 -0.8157
vn -0.5534 -0.0000 -0.8329
vn -0.5422 -0.2042 -0.8151
vn -0.5115 -0.3851 -0.7682
vn -0.5139 -0.4733 -0.7155
vn -0.3365 0.3971 -0.8539
vn -0.3035 0.4162 -0.8571
vn -0.3583 0.2206 -0.9072
vn -0.3678 0.0184 -0.9297
vn -0.3616 -0.1875 -0.9133
vn -0.3416 -0.3727 -0.8628
vn -0.3296 -0.4888 -0.8077
# 158 vertex normals

vt 194.4745 0.0000 0.0000
vt 194.4745 15.0753 0.0000
vt 155.5796 15.0753 0.0000
vt 155.5796 0.0000 0.0000
vt 116.6847 15.0753 0.0000
vt 116.6847 0.0000 0.0000
vt 77.7898 15.0753 0.0000
vt 77.7898 0.0000 0.0000
vt 38.8949 15.0753 0.0000
vt 38.8949 0.0000 0.0000
vt 0.0000 15.0753 0.0000
vt 0.0000 0.0000 0.0000
vt 194.4745 30.1506 0.0000
vt 155.5796 30.1506 0.0000
vt 116.6847 30.1506 0.0000
vt 77.7898 30.1506 0.0000
vt 38.8949 30.1506 0.0000
vt 0.0000 30.1506 0.0000
vt 194.4745 45.2260 0.0000
vt 155.5796 45.2260 0.0000
vt 116.6847 45.2260 0.0000
vt 77.7898 45.2260 0.0000
vt 38.8949 45.2260 0.0000
vt 0.0000 45.2260 0.0000
vt 194.4745 60.3013 0.0000
vt 155.5796 60.3013 0.0000
vt 116.6847 60.3013 0.0000
vt 77.7898 60.3013 0.0000
vt 38.8949 60.3013 0.0000
vt 0.0000 60.3013 0.0000
vt 194.4745 75.3766 0.0000
vt 155.5796 75.3766 0.0000
vt 116.6847 75.3766 0.0000
vt 77.7898 75.3766 0.0000
vt 38.8949 75.3766 0.0000
vt 0.0000 75.3766 0.0000
vt 194.4745 90.4519 0.0000
vt 155.5796 90.4519 0.0000
vt 116.6847 90.4519 0.0000
vt 77.7898 90.4519 0.0000
vt 38.8949 90.4519 0.0000
vt 0.0000 90.4519 0.0000
vt 38.8949 17.6694 0.0000
vt 0.0000 17.6694 0.0000
vt 77.7898 17.6694 0.0000
vt 116.6847 17.6694 0.0000
vt 155.5796 17.6694 0.0000
vt 194.4745 17.6694 0.0000
vt 38.8949 35.3389 0.0000
vt 0.0000 35.3389 0.0000
vt 77.7898 35.3389 0.0000
vt 116.6847 35.3389 0.0000
vt 155.5796 35.3389 0.0000
vt 194.4745 35.3389 0.0000
vt 38.8949 53.0083 0.0000
vt 0.0000 53.0083 0.0000
vt 77.7898 53.0083 0.0000
vt 116.6847 53.0083 0.0000
vt 155.5796 53.0083 0.0000
vt 194.4745 53.0083 0.0000
vt 38.8949 70.6778 0.0000
vt 0.0000 70.6778 0.0000
vt 77.7898 70.6778 0.0000
vt 116.6847 70.6778 0.0000
vt 155.5796 70.6778 0.0000
vt 194.4745 70.6778 0.0000
vt 38.8949 88.3472 0.0000
vt 0.0000 88.3472 0.0000
vt 77.7898 88.3472 0.0000
vt 116.6847 88.3472 0.0000
vt 155.5796 88.3472 0.0000
vt 194.4745 88.3472 0.0000
vt 15.0753 0.0000 0.0000
vt 15.0753 17.6694 0.0000
vt 30.1506 0.0000 0.0000
vt 30.1506 17.6694 0.0000
vt 45.2260 0.0000 0.0000
vt 45.2260 17.6694 0.0000
vt 60.3013 0.0000 0.0000
vt 60.3013 17.6694 0.0000
vt 75.3766 0.0000 0.0000
vt 75.3766 17.6694 0.0000
vt 90.4519 0.0000 0.0000
vt 90.4519 17.6694 0.0000
vt 15.0753 35.3389 0.0000
vt 30.1506 35.3389 0.0000
vt 45.2260 35.3389 0.0000
vt 60.3013 35.3389 0.0000
vt 75.3766 35.3389 0.0000
vt 90.4519 35.3389 0.0000
vt 15.0753 53.0083 0.0000
vt 30.1506 53.0083 0.0000
vt 45.2260 53.0083 0.0000
vt 60.3013 53.0083 0.0000
vt 75.3766 53.0083 0.0000
vt 90.4519 53.0083 0.0000
vt 15.0753 70.6778 0.0000
vt 30.1506 70.6778 0.0000
vt 45.2260 70.6778 0.0000
vt 60.3013 70.6778 0.0000
vt 75.3766 70.6778 0.0000
vt 90.4519 70.6778 0.0000
vt 15.0753 88.3472 0.0000
vt 30.1506 88.3472 0.0000
vt 45.2260 88.3472 0.0000
vt 60.3013 88.3472 0.0000
vt 75.3766 88.3472 0.0000
vt 90.4519 88.3472 0.0000
# 108 texture coords

g Box001
usemtl wire_088199225
f 1/1/1 2/2/1 3/3/1 
f 3/3/1 4/4/1 1/1/1 
f 4/4/1 3/3/1 5/5/1 
f 5/5/1 6/6/1 4/4/1 
f 6/6/1 5/5/1 7/7/1 
f 7/7/1 8/8/1 6/6/1 
f 8/8/1 7/7/1 9/9/1 
f 9/9/1 10/10/1 8/8/1 
f 10/10/1 9/9/1 11/11/1 
f 11/11/1 12/12/1 10/10/1 
f 2/2/1 13/13/1 14/14/1 
f 14/14/1 3/3/1 2/2/1 
f 3/3/1 14/14/1 15/15/1 
f 15/15/1 5/5/1 3/3/1 
f 5/5/1 15/15/1 16/16/1 
f 16/16/1 7/7/1 5/5/1 
f 7/7/1 16/16/1 17/17/1 
f 17/17/1 9/9/1 7/7/1 
f 9/9/1 17/17/1 18/18/1 
f 18/18/1 11/11/1 9/9/1 
f 13/13/1 19/19/1 20/20/1 
f 20/20/1 14/14/1 13/13/1 
f 14/14/1 20/20/1 21/21/1 
f 21/21/1 15/15/1 14/14/1 
f 15/15/1 21/21/1 22/22/1 
f 22/22/1 16/16/1 15/15/1 
f 16/16/1 22/22/1 23/23/1 
f 23/23/1 17/17/1 16/16/1 
f 17/17/1 23/23/1 24/24/1 
f 24/24/1 18/18/1 17/17/1 
f 19/19/1 25/25/1 26/26/1 
f 26/26/1 20/20/1 19/19/1 
f 20/20/1 26/26/1 27/27/1 
f 27/27/1 21/21/1 20/20/1 
f 21/21/1 27/27/1 28/28/1 
f 28/28/1 22/22/1 21/21/1 
f 22/22/1 28/28/1 29/29/1 
f 29/29/1 23/23/1 22/22/1 
f 23/23/1 29/29/1 30/30/1 
f 30/30/1 24/24/1 23/23/1 
f 25/25/1 31/31/1 32/32/1 
f 32/32/1 26/26/1 25/25/1 
f 26/26/1 32/32/1 33/33/1 
f 33/33/1 27/27/1 26/26/1 
f 27/27/1 33/33/1 34/34/1 
f 34/34/1 28/28/1 27/27/1 
f 28/28/1 34/34/1 35/35/1 
f 35/35/1 29/29/1 28/28/1 
f 29/29/1 35/35/1 36/36/1 
f 36/36/1 30/30/1 29/29/1 
f 31/31/1 37/37/1 38/38/1 
f 38/38/1 32/32/1 31/31/1 
f 32/32/1 38/38/1 39/39/1 
f 39/39/1 33/33/1 32/32/1 
f 33/33/1 39/39/1 40/40/1 
f 40/40/1 34/34/1 33/33/1 
f 34/34/1 40/40/1 41/41/1 
f 41/41/1 35/35/1 34/34/1 
f 35/35/1 41/41/1 42/42/1 
f 42/42/1 36/36/1 35/35/1 
f 43/12/2 44/10/2 45/9/2 
f 45/9/2 46/11/2 43/12/2 
f 44/10/2 47/8/2 48/7/2 
f 48/7/2 45/9/2 44/10/2 
f 47/8/2 49/6/2 50/5/2 
f 50/5/2 48/7/2 47/8/2 
f 49/6/2 51/4/2 52/3/2 
f 52/3/2 50/5/2 49/6/2 
f 51/4/2 53/1/2 54/2/2 
f 54/2/2 52/3/2 51/4/2 
f 46/11/2 45/9/2 55/17/2 
f 55/17/2 56/18/2 46/11/2 
f 45/9/2 48/7/2 57/16/2 
f 57/16/2 55/17/2 45/9/2 
f 48/7/2 50/5/2 58/15/2 
f 58/15/2 57/16/2 48/7/2 
f 50/5/2 52/3/2 59/14/2 
f 59/14/2 58/15/2 50/5/2 
f 52/3/2 54/2/2 60/13/2 
f 60/13/2 59/14/2 52/3/2 
f 56/18/2 55/17/2 61/23/2 
f 61/23/2 62/24/2 56/18/2 
f 55/17/2 57/16/2 63/22/2 
f 63/22/2 61/23/2 55/17/2 
f 57/16/2 58/15/2 64/21/2 
f 64/21/2 63/22/2 57/16/2 
f 58/15/2 59/14/2 65/20/2 
f 65/20/2 64/21/2 58/15/2 
f 59/14/2 60/13/2 66/19/2 
f 66/19/2 65/20/2 59/14/2 
f 62/24/2 61/23/2 67/29/2 
f 67/29/2 68/30/2 62/24/2 
f 61/23/2 63/22/2 69/28/2 
f 69/28/2 67/29/2 61/23/2 
f 63/22/2 64/21/2 70/27/2 
f 70/27/2 69/28/2 63/22/2 
f 64/21/2 65/20/2 71/26/2 
f 71/26/2 70/27/2 64/21/2 
f 65/20/2 66/19/2 72/25/2 
f 72/25/2 71/26/2 65/20/2 
f 68/30/2 67/29/2 73/35/2 
f 73/35/2 74/36/2 68/30/2 
f 67/29/2 69/28/2 75/34/2 
f 75/34/2 73/35/2 67/29/2 
f 69/28/2 70/27/2 76/33/2 
f 76/33/2 75/34/2 69/28/2 
f 70/27/2 71/26/2 77/32/2 
f 77/32/2 76/33/2 70/27/2 
f 71/26/2 72/25/2 78/31/2 
f 78/31/2 77/32/2 71/26/2 
f 74/36/2 73/35/2 79/41/2 
f 79/41/2 80/42/2 74/36/2 
f 73/35/2 75/34/2 81/40/2 
f 81/40/2 79/41/2 73/35/2 
f 75/34/2 76/33/2 82/39/2 
f 82/39/2 81/40/2 75/34/2 
f 76/33/2 77/32/2 83/38/2 
f 83/38/2 82/39/2 76/33/2 
f 77/32/2 78/31/2 84/37/2 
f 84/37/2 83/38/2 77/32/2 
f 1/12/3 4/10/4 85/43/5 
f 85/43/5 86/44/6 1/12/3 
f 4/10/4 6/8/7 87/45/8 
f 87/45/8 85/43/5 4/10/4 
f 6/8/7 8/6/9 88/46/10 
f 88/46/10 87/45/8 6/8/7 
f 8/6/9 10/4/11 89/47/12 
f 89/47/12 88/46/10 8/6/9 
f 10/4/11 12/1/13 90/48/14 
f 90/48/14 89/47/12 10/4/11 
f 86/44/6 85/43/5 91/49/15 
f 91/49/15 92/50/16 86/44/6 
f 85/43/5 87/45/8 93/51/17 
f 93/51/17 91/49/15 85/43/5 
f 87/45/8 88/46/10 94/52/18 
f 94/52/18 93/51/17 87/45/8 
f 88/46/10 89/47/12 95/53/19 
f 95/53/19 94/52/18 88/46/10 
f 89/47/12 90/48/14 96/54/20 
f 96/54/20 95/53/19 89/47/12 
f 92/50/16 91/49/15 97/55/21 
f 97/55/21 98/56/22 92/50/16 
f 91/49/15 93/51/17 99/57/23 
f 99/57/23 97/55/21 91/49/15 
f 93/51/17 94/52/18 100/58/24 
f 100/58/24 99/57/23 93/51/17 
f 94/52/18 95/53/19 101/59/25 
f 101/59/25 100/58/24 94/52/18 
f 95/53/19 96/54/20 102/60/26 
f 102/60/26 101/59/25 95/53/19 
f 98/56/22 97/55/21 103/61/27 
f 103/61/27 104/62/28 98/56/22 
f 97/55/21 99/57/23 105/63/29 
f 105/63/29 103/61/27 97/55/21 
f 99/57/23 100/58/24 106/64/30 
f 106/64/30 105/63/29 99/57/23 
f 100/58/24 101/59/25 107/65/31 
f 107/65/31 106/64/30 100/58/24 
f 101/59/25 102/60/26 108/66/32 
f 108/66/32 107/65/31 101/59/25 
f 104/62/28 103/61/27 44/67/33 
f 44/67/33 43/68/34 104/62/28 
f 103/61/27 105/63/29 47/69/35 
f 47/69/35 44/67/33 103/61/27 
f 105/63/29 106/64/30 49/70/36 
f 49/70/36 47/69/35 105/63/29 
f 106/64/30 107/65/31 51/71/37 
f 51/71/37 49/70/36 106/64/30 
f 107/65/31 108/66/32 53/72/38 
f 53/72/38 51/71/37 107/65/31 
f 12/12/39 11/73/40 109/74/41 
f 109/74/41 90/44/42 12/12/39 
f 11/73/40 18/75/43 110/76/44 
f 110/76/44 109/74/41 11/73/40 
f 18/75/43 24/77/45 111/78/46 
f 111/78/46 110/76/44 18/75/43 
f 24/77/45 30/79/47 112/80/48 
f 112/80/48 111/78/46 24/77/45 
f 30/79/47 36/81/49 113/82/50 
f 113/82/50 112/80/48 30/79/47 
f 36/81/49 42/83/51 114/84/52 
f 114/84/52 113/82/50 36/81/49 
f 90/44/42 109/74/41 115/85/53 
f 115/85/53 96/50/54 90/44/42 
f 109/74/41 110/76/44 116/86/55 
f 116/86/55 115/85/53 109/74/41 
f 110/76/44 111/78/46 117/87/56 
f 117/87/56 116/86/55 110/76/44 
f 111/78/46 112/80/48 118/88/57 
f 118/88/57 117/87/56 111/78/46 
f 112/80/48 113/82/50 119/89/58 
f 119/89/58 118/88/57 112/80/48 
f 113/82/50 114/84/52 120/90/59 
f 120/90/59 119/89/58 113/82/50 
f 96/50/54 115/85/53 121/91/60 
f 121/91/60 102/56/61 96/50/54 
f 115/85/53 116/86/55 122/92/62 
f 122/92/62 121/91/60 115/85/53 
f 116/86/55 117/87/56 123/93/63 
f 123/93/63 122/92/62 116/86/55 
f 117/87/56 118/88/57 124/94/64 
f 124/94/64 123/93/63 117/87/56 
f 118/88/57 119/89/58 125/95/65 
f 125/95/65 124/94/64 118/88/57 
f 119/89/58 120/90/59 126/96/66 
f 126/96/66 125/95/65 119/89/58 
f 102/56/61 121/91/60 127/97/67 
f 127/97/67 108/62/68 102/56/61 
f 121/91/60 122/92/62 128/98/69 
f 128/98/69 127/97/67 121/91/60 
f 122/92/62 123/93/63 129/99/70 
f 129/99/70 128/98/69 122/92/62 
f 123/93/63 124/94/64 130/100/71 
f 130/100/71 129/99/70 123/93/63 
f 124/94/64 125/95/65 131/101/72 
f 131/101/72 130/100/71 124/94/64 
f 125/95/65 126/96/66 132/102/73 
f 132/102/73 131/101/72 125/95/65 
f 108/62/68 127/97/67 54/103/74 
f 54/103/74 53/68/75 108/62/68 
f 127/97/67 128/98/69 60/104/76 
f 60/104/76 54/103/74 127/97/67 
f 128/98/69 129/99/70 66/105/77 
f 66/105/77 60/104/76 128/98/69 
f 129/99/70 130/100/71 72/106/78 
f 72/106/78 66/105/77 129/99/70 
f 130/100/71 131/101/72 78/107/79 
f 78/107/79 72/106/78 130/100/71 
f 131/101/72 132/102/73 84/108/80 
f 84/108/80 78/107/79 131/101/72 
f 42/12/81 41/10/82 133/43/83 
f 133/43/83 114/44/84 42/12/81 
f 41/10/82 40/8/85 134/45/86 
f 134/45/86 133/43/83 41/10/82 
f 40/8/85 39/6/87 135/46/88 
f 135/46/88 134/45/86 40/8/85 
f 39/6/87 38/4/89 136/47/90 
f 136/47/90 135/46/88 39/6/87 
f 38/4/89 37/1/91 137/48/92 
f 137/48/92 136/47/90 38/4/89 
f 114/44/84 133/43/83 138/49/93 
f 138/49/93 120/50/94 114/44/84 
f 133/43/83 134/45/86 139/51/95 
f 139/51/95 138/49/93 133/43/83 
f 134/45/86 135/46/88 140/52/96 
f 140/52/96 139/51/95 134/45/86 
f 135/46/88 136/47/90 141/53/97 
f 141/53/97 140/52/96 135/46/88 
f 136/47/90 137/48/92 142/54/98 
f 142/54/98 141/53/97 136/47/90 
f 120/50/94 138/49/93 143/55/99 
f 143/55/99 126/56/100 120/50/94 
f 138/49/93 139/51/95 144/57/101 
f 144/57/101 143/55/99 138/49/93 
f 139/51/95 140/52/96 145/58/102 
f 145/58/102 144/57/101 139/51/95 
f 140/52/96 141/53/97 146/59/103 
f 146/59/103 145/58/102 140/52/96 
f 141/53/97 142/54/98 147/60/104 
f 147/60/104 146/59/103 141/53/97 
f 126/56/100 143/55/99 148/61/105 
f 148/61/105 132/62/106 126/56/100 
f 143/55/99 144/57/101 149/63/107 
f 149/63/107 148/61/105 143/55/99 
f 144/57/101 145/58/102 150/64/108 
f 150/64/108 149/63/107 144/57/101 
f 145/58/102 146/59/103 151/65/109 
f 151/65/109 150/64/108 145/58/102 
f 146/59/103 147/60/104 152/66/110 
f 152/66/110 151/65/109 146/59/103 
f 132/62/106 148/61/105 83/67/111 
f 83/67/111 84/68/112 132/62/106 
f 148/61/105 149/63/107 82/69/113 
f 82/69/113 83/67/111 148/61/105 
f 149/63/107 150/64/108 81/70/114 
f 81/70/114 82/69/113 149/63/107 
f 150/64/108 151/65/109 79/71/115 
f 79/71/115 81/70/114 150/64/108 
f 151/65/109 152/66/110 80/72/116 
f 80/72/116 79/71/115 151/65/109 
f 37/12/117 31/73/118 153/74/119 
f 153/74/119 137/44/120 37/12/117 
f 31/73/118 25/75/121 154/76/122 
f 154/76/122 153/74/119 31/73/118 
f 25/75/121 19/77/123 155/78/124 
f 155/78/124 154/76/122 25/75/121 
f 19/77/123 13/79/125 156/80/126 
f 156/80/126 155/78/124 19/77/123 
f 13/79/125 2/81/127 157/82/128 
f 157/82/128 156/80/126 13/79/125 
f 2/81/127 1/83/129 86/84/130 
f 86/84/130 157/82/128 2/81/127 
f 137/44/120 153/74/119 158/85/131 
f 158/85/131 142/50/132 137/44/120 
f 153/74/119 154/76/122 159/86/133 
f 159/86/133 158/85/131 153/74/119 
f 154/76/122 155/78/124 160/87/134 
f 160/87/134 159/86/133 154/76/122 
f 155/78/124 156/80/126 161/88/135 
f 161/88/135 160/87/134 155/78/124 
f 156/80/126 157/82/128 162/89/136 
f 162/89/136 161/88/135 156/80/126 
f 157/82/128 86/84/130 92/90/137 
f 92/90/137 162/89/136 157/82/128 
f 142/50/132 158/85/131 163/91/138 
f 163/91/138 147/56/139 142/50/132 
f 158/85/131 159/86/133 164/92/140 
f 164/92/140 163/91/138 158/85/131 
f 159/86/133 160/87/134 165/93/141 
f 165/93/141 164/92/140 159/86/133 
f 160/87/134 161/88/135 166/94/142 
f 166/94/142 165/93/141 160/87/134 
f 161/88/135 162/89/136 167/95/143 
f 167/95/143 166/94/142 161/88/135 
f 162/89/136 92/90/137 98/96/144 
f 98/96/144 167/95/143 162/89/136 
f 147/56/139 163/91/138 168/97/145 
f 168/97/145 152/62/146 147/56/139 
f 163/91/138 164/92/140 169/98/147 
f 169/98/147 168/97/145 163/91/138 
f 164/92/140 165/93/141 170/99/148 
f 170/99/148 169/98/147 164/92/140 
f 165/93/141 166/94/142 171/100/149 
f 171/100/149 170/99/148 165/93/141 
f 166/94/142 167/95/143 172/101/150 
f 172/101/150 171/100/149 166/94/142 
f 167/95/143 98/96/144 104/102/151 
f 104/102/151 172/101/150 167/95/143 
f 152/62/146 168/97/145 74/103/152 
f 74/103/152 80/68/153 152/62/146 
f 168/97/145 169/98/147 68/104/154 
f 68/104/154 74/103/152 168/97/145 
f 169/98/147 170/99/148 62/105/155 
f 62/105/155 68/104/154 169/98/147 
f 170/99/148 171/100/149 56/106/156 
f 56/106/156 62/105/155 170/99/148 
f 171/100/149 172/101/150 46/107/157 
f 46/107/157 56/106/156 171/100/149 
f 172/101/150 104/102/151 43/108/158 
f 43/108/158 46/107/157 172/101/150 
# 340 faces

