# 3ds Max Wavefront OBJ Exporter v0.97b - (c)2007 guruware
# File Created: 01.05.2012 16:38:34

mtllib scene.mtl

#
# object Plane001
#

v  -10.0543 0.0000 9.4097
v  9.7750 0.0000 9.4097
v  9.7750 0.0000 -9.4620
v  -10.0543 0.0000 -9.4620
v  9.7758 0.0000 9.4099
v  11.8670 0.0000 9.4099
v  11.8670 0.0000 -9.4107
v  9.7758 0.0000 -9.4107
v  13.9582 0.0000 9.4099
v  13.9582 0.0000 -9.4107
v  16.0494 0.0000 9.4099
v  16.0494 0.0000 -9.4107
v  18.1405 0.0000 9.4099
v  18.1405 0.0000 -9.4107
v  20.2300 0.0520 9.4099
v  20.2300 0.0520 -9.4107
v  22.2765 0.4646 9.4099
v  22.2765 0.4646 -9.4107
v  24.2012 1.2735 9.4099
v  24.2012 1.2735 -9.4107
v  25.9280 2.4468 9.4099
v  25.9280 2.4468 -9.4107
v  27.3888 3.9383 9.4099
v  27.3888 3.9383 -9.4107
# 24 vertices

vn 0.0000 1.0000 -0.0000
vn -0.0124 0.9999 -0.0000
vn -0.1117 0.9937 -0.0000
vn -0.2940 0.9558 -0.0000
vn -0.4771 0.8788 -0.0000
vn -0.6414 0.7672 -0.0000
vn -0.7144 0.6997 -0.0000
# 7 vertex normals

vt 0.0000 0.0000 0.0000
vt 10.0291 0.0000 0.0000
vt 10.0291 9.5448 0.0000
vt 0.0000 9.5448 0.0000
vt 1.0577 0.0000 0.0000
vt 1.0577 9.5189 0.0000
vt 0.0000 9.5189 0.0000
vt 2.1153 0.0000 0.0000
vt 2.1153 9.5189 0.0000
vt 3.1730 0.0000 0.0000
vt 3.1730 9.5189 0.0000
vt 4.2306 0.0000 0.0000
vt 4.2306 9.5189 0.0000
vt 5.2883 0.0000 0.0000
vt 5.2883 9.5189 0.0000
vt 6.3459 0.0000 0.0000
vt 6.3459 9.5189 0.0000
vt 7.4036 0.0000 0.0000
vt 7.4036 9.5189 0.0000
vt 8.4613 0.0000 0.0000
vt 8.4613 9.5189 0.0000
vt 9.5189 0.0000 0.0000
vt 9.5189 9.5189 0.0000
# 23 texture coords

g Plane001
usemtl wire_027177027
f 1/1/1 2/2/1 3/3/1 
f 3/3/1 4/4/1 1/1/1 
f 5/1/1 6/5/1 7/6/1 
f 7/6/1 8/7/1 5/1/1 
f 6/5/1 9/8/1 10/9/1 
f 10/9/1 7/6/1 6/5/1 
f 9/8/1 11/10/1 12/11/1 
f 12/11/1 10/9/1 9/8/1 
f 11/10/1 13/12/2 14/13/2 
f 14/13/2 12/11/1 11/10/1 
f 13/12/2 15/14/3 16/15/3 
f 16/15/3 14/13/2 13/12/2 
f 15/14/3 17/16/4 18/17/4 
f 18/17/4 16/15/3 15/14/3 
f 17/16/4 19/18/5 20/19/5 
f 20/19/5 18/17/4 17/16/4 
f 19/18/5 21/20/6 22/21/6 
f 22/21/6 20/19/5 19/18/5 
f 21/20/6 23/22/7 24/23/7 
f 24/23/7 22/21/6 21/20/6 
# 20 faces

